<?xml version="1.0" encoding="utf-8"?>
<!-- Generator: Adobe Illustrator 24.0.1, SVG Export Plug-In . SVG Version: 6.00 Build 0)  -->
<svg version="1.1" id="Layer_1" xmlns="http://www.w3.org/2000/svg" xmlns:xlink="http://www.w3.org/1999/xlink" x="0px" y="0px"
	 viewBox="0 0 1000 800" style="enable-background:new 0 0 1000 800;" xml:space="preserve">
<style type="text/css">
	.st0{fill:#FFFFFF;}
</style>
<g>
	<path d="M715.4,275.6c4.4-5.7,8.9-11.4,13.3-17.1c0.4,0,0.7,0,1.1,0c-0.4,6.1-0.7,12.3-1.2,18.4c-1,10.8-5.2,20.8-8.9,30.8
		c-1.4,3.9-4.4,7.3-6.9,10.8c-1.5,2.1-1.7,3.7-0.3,6.3c3,5.6,5.3,11.7,7.7,17.7c0.3,0.8-0.9,2.2-0.9,3.3c0,4.2,0.8,7.9,4.1,11.2
		c7.2,7.4,11.7,16.4,15.2,26.1c1.7,4.6,1.2,9.5,2.5,14.1c0.3,1.3,0.9,2.5,1.3,3.7c-0.4,1.2-1.1,2.6-1.4,4c-0.8,4-0.7,8.3-2.2,12
		c-2.1,5.3-0.6,9.5,1.6,14.3c3.3,7.3,7,14.9,7.9,22.7c1.1,9.8,0,20-5.1,29c-1.9,3.3-1.3,5.9,0,9.2c2,5,3.5,10.4,4.3,15.8
		c1.1,8.1-0.2,13.3-2.8,21.3c-2.1,6.7-6.3,12-11.1,16.5c-4.9,4.6-7,9.8-8,16.3c-1.9,11.5-7.1,21.7-15.2,30.2
		c-9.9,10.4-22.6,14.9-36.5,16.7c-3.5,0.5-7.1,0.1-10.5,0.6c-1.4,0.2-2.9,1.7-3.9,2.9c-8.9,10.7-17.1,22-26.8,32
		c-15.1,15.5-30.9,30.2-49.8,41.2c-0.5,0.3-1,0.8-1.2,1c4.6,19.3-0.8,36.5-9.7,53.3c-5.4-10.8-10.6-21.2-15.8-31.6
		c-0.5,0.2-0.9,0.3-1.4,0.5c-1.1,18.6-2.4,37.1-14.6,53.9c-6.8-14.1-11.2-28-14.4-43.3c-8.9,10.1-15.5,20.7-18.9,34
		c-6.2-10.2-9.4-20.7-10-32.7c-7.5,3-14.9,4-22.4,0.6c-0.9,11.6-3.6,22.1-9.9,32.4c-3.2-13.4-10.7-23.7-19.2-35
		c-2.4,16.6-7.7,30.8-14.7,44.6c-11.1-16.4-13.4-34.8-14.7-53.8c-7,9.9-12.6,20.2-15.4,32.1c-6.9-9.6-10.4-20.8-11.9-32.6
		c-0.8-6.2,0.5-12.6,0.5-18.9c0-1.7-1-4.2-2.4-5c-18.5-11.1-34.1-25.7-48.9-41.2c-8.8-9.2-17-19.2-24.5-29.5
		c-3.8-5.3-8.6-4.3-13.1-4.7c-11.9-1.2-23.1-4.2-32.8-11.4c-12.9-9.6-19.8-22.8-22.4-38.4c-0.8-4.6-2.1-8.5-5.8-11.8
		c-9.4-8.6-14.9-19.6-16.1-32.1c-0.7-8.5,0.9-17,5.1-24.8c0.8-1.6,1.2-4.2,0.4-5.7c-7.8-15.1-6.6-30.4-1.7-45.8
		c0.8-2.5,1.9-5,3.3-7.1c3.1-4.7,3.6-9.4,2.3-15c-1.8-7.8-2.9-15.9-2.8-23.8c0.1-5,2.5-10.2,4.6-15c3.6-8.5,8.3-16.4,14.7-23.1
		c1.5-1.5,2.2-4.2,2.4-6.4c0.8-8.8,2-17.3,7.2-24.8c0.7-1.1,0.7-3.5,0-4.6c-6.8-10.1-11.7-21.2-14.4-32.8c-2.2-9.3-2.2-19.1-3.2-30
		c5.5,7.2,10.1,13.1,14.6,19c0.3-0.2,0.7-0.3,1-0.5c-5.8-14.4-8.7-29.4-8.8-44.7c-0.1-15.5,2-30.7,9.9-45.2
		c1.3,4.1,2.2,7.9,3.8,11.3c3.3,7.2,7.1,14.1,11.3,21c-1.7-6.6-0.7-13.1-0.1-19.4c0.7-7,2.3-13.9,3.7-21.5
		c-4.6-4.1-11-7.8-15.3-13.8c-4.6-6.5-10.1-12.5-13.9-19.4c-3.9-7-6.3-14.9-9.1-22.5c-2.7-7.2-3.2-14.9-3.4-22.5
		c-0.2-7.8,0.5-15.6,1.5-23.5c6.3,11.8,13.8,22.1,25.1,30.9c-7.6-21.8-10.7-42.9-4.1-64.7c4,7.1,7.2,13.9,11.4,20.1
		c8.3,12.2,18.5,22.8,30.7,31c4.9,3.3,10.2,6,15.4,8.6c1.3,0.6,4,0.3,4.9-0.6c7.2-8,16.7-10.7,26.8-11.9c2.8-0.3,4.5-1.2,6-3.7
		c2.1-3.6,4.3-7.8,7.6-9.9c4.1-2.6,9.4-4.1,14.3-4.8c7-1,13.3-2.4,19.4-6.9c11.7-8.6,25.7-10.9,40-10.1c5.5,0.3,10.6-0.7,15.8-2.1
		c11-3,22-2.5,33,0c1.2,0.3,2.6,0.5,3.7,0.2c10.1-2.7,20.3-3.3,30.7-1.6c1.7,0.3,3.5,0.3,5,1.1c6.9,3.6,14.3,1.6,21.5,2
		c14.7,0.8,28.3,4.3,39.9,14.2c2.4,2,6.8,1.6,10.3,2.3c7.6,1.5,14.9,3.5,20.5,9.6c1.4,1.5,3.1,2.5,4,4.7c1.3,3.3,4.2,3.5,7.9,4.3
		c8.1,1.7,16.5,4.1,23,10.2c1.4,1.4,2.9,2.7,4.6,4.3c27.2-13.2,47.9-33,59.8-62.1c4.3,10.8,4.5,21.4,3.5,31.8
		c-1.1,10.8-3.7,21.4-5.7,32.2c2-1.7,4.4-3.6,6.5-5.7c2.4-2.4,4.6-4.9,6.6-7.5c1.9-2.5,3.6-5.2,5.2-8c1.5-2.7,2.8-5.5,4.8-9.4
		c0.8,4.4,1.7,7.6,1.8,10.9c0.7,14.8-0.6,29.4-5.5,43.6c-6.3,18.2-17.3,32.8-32.1,44.7c-3.4,2.8-4.7,4.2-2.9,9.4
		c3.1,9.1,4.1,19.1,2.7,28.9c-0.2,1.8-0.4,3.7-0.5,5.5c0.5,0.2,1,0.4,1.6,0.6c4.8-10.4,9.5-20.7,14.3-31c7.2,13.5,9.4,28.7,9.3,44.5
		c-0.2,15.2-3,29.9-8.8,44C714.7,275.2,715.1,275.4,715.4,275.6z M260.6,216.3c2.8,31.9,10.6,60.6,35.7,82.9
		c-8.4-0.1-15.7-1-22.5-3.7c-6.8-2.7-13.1-6.5-19.2-9.6c9.9,31.5,41.7,67.4,100.6,66.2c-9.6,12.1-20,21.7-35,25.9
		c6.8,3.8,13.6,7.6,20.7,10c17.2,5.7,34.6,4.4,51.7-0.6c21.4-6.2,40-17.5,57.3-31.3c3-2.4,3.7-4.9,2.8-8.6
		c-2.3-9.3-2.5-18.7-0.8-28.2c1.5-8.4,5.1-16.2,10.5-22.2c4.7-5.3,12.1-8.4,18.6-12.1c2-1.1,5.1-1.6,7.2-0.9
		c13.8,4.4,23.5,13.5,29,26.9c5,12.3,4.3,25,1.7,37.6c-0.6,2.9-0.3,4.9,2.1,6.6c7.8,5.5,15.2,11.5,23.4,16.4
		c7.6,4.6,15.8,8.2,24,11.6c4.9,2.1,10.3,2.8,15.4,4.5c19.2,6.2,37.9,4.1,56.2-3.7c3.9-1.7,7.5-4.1,11.5-6.3
		c-18.9-8-29.2-15.9-33.8-26.3c22.1,0.7,42.5-4.1,61.1-16c18.9-12.1,30.5-29.7,39.3-51.1c-18,12-24.6,14.1-45.1,14.7
		c8.8-3.6,13.8-11,18-18.1c5.9-9.9,10.1-20.8,14.3-31.6c2.3-5.9,3-12.5,4.1-18.9c0.8-4.4,0.9-8.8,1.5-14.6
		c-9.5,12-16.4,16.7-23.9,17.2c3.8-23.3,3.9-34.8-0.1-41c0.5,12.8,0.3,24.8-3.3,37.3c-0.5-2-0.8-3-1.2-4.6c-0.7,1.9-1.1,3-1.6,4.6
		c-1.5-9.6-3-18.4-4.4-27.2c-0.4,0.1-0.8,0.1-1.2,0.2c1,8.1,2.1,16.2,3.1,24.3c-0.4,0-0.7,0.1-1.1,0.1c-3.8-11.4-7.5-22.9-11.3-34.3
		c-0.3,0.1-0.7,0.2-1,0.3c3.2,11.1,6.4,22.3,9.7,33.4c-0.4,0.1-0.8,0.2-1.2,0.4c-3.8-8.5-7.6-17-11.5-25.4c-0.4,0.2-0.8,0.3-1.2,0.5
		c0.1,0.8,0.1,1.6,0.3,2.3c3.6,10.3,5,20.9,4.3,31.6c-0.5,6.7-0.5,14-3.2,19.9c-3.5,7.9-7.5,15.9-13.8,22.5
		c-7.9,8.1-15.8,16-26.2,20.7c-5.6,2.5-11.5,4.5-17.5,5.8c-14,3-31.3-1.4-42-7.6c-9.8-5.7-19-12.2-27.9-18.1
		c5,9.7,13.7,17.3,22.5,24.9c-12.8-3.7-22.6-11.7-31.5-21.3c2.9,5.2,5.9,10.3,9.7,14.8c3.6,4.2,8.1,7.8,12.2,11.6
		c-12.7-3.5-21.8-11.9-30.2-21.4c4,11.6,12.7,19.7,20.8,28.1c-8.1-3.8-16.2-7.6-21.4-15.1c-3.9-5.5-7.8-11.1-11.2-16.9
		c-3.2-5.5-5.5-11.4-8.4-17.1c-0.8-1.5-2.3-2.7-2.9-4.3c-2.9-7.7-5.5-15.4-8.4-23.5c-2.8,6.9-4.9,13.4-7.9,19.4
		c-6.9,13.6-13.7,27.3-21.6,40.3c-4.7,7.7-12.4,13-22.5,16.6c9.3-9.2,17.4-17.6,21.1-29.2c-8.2,10.8-17.8,19.7-32.3,24.4
		c10.1-8.3,18.2-16.6,22.9-27.6c-8.7,9.7-18.1,18.1-31.3,21.1c9.1-7.1,17.5-14.7,22.4-25.4c-1.1,0.6-2.1,1.3-3,2.1
		c-9.1,8.2-19.3,14.8-30.7,19.5c-26,10.8-49.2,6.1-70.2-12.1c-9-7.7-16.3-16.6-20.9-27.6c-6-14.2-7.7-28.9-4.4-44.1
		c1.2-5.7,2.8-11.3,4.2-17c-0.3-0.1-0.6-0.2-0.8-0.3c-4.3,9.9-8.7,19.8-13.1,30c0.4-4,0.8-8.1,1.2-12.2c-0.4-0.1-0.8-0.1-1.2-0.2
		c-1.1,3.5-2.1,7.1-3.2,10.6c-0.5-0.1-0.9-0.2-1.4-0.3c1.2-8.7,2.4-17.3,3.6-26c-0.3,0-0.7-0.1-1-0.1c-1.6,8.8-3.3,17.7-4.9,26.5
		c-0.2,0-0.4,0-0.7,0c-0.2-3.8-0.5-7.6-0.7-11.4c-0.3,0-0.5,0-0.8,0c0,4.3,0,8.5,0,12.8c-4.8-12.7-4.3-25.7-4.1-38.7
		c-4.9,14.7-3.5,29.5,0.6,44.7C274.5,231.1,267.1,225.2,260.6,216.3z M309.2,135.8c-20.7-4.3-39.8-12-55.9-26.9
		c1.6,5.4,3.6,10.6,6.2,15.5c3.8,7,7.3,14.3,12.2,20.5c11.8,15,28.1,24.1,45.2,31.8c13.2,6,26.5,11.7,39.8,17.3
		c3.3,1.4,7.3,1.5,10.5,3.1c6.8,3.4,13.4,7.4,20,11.1c0.4-0.4,0.8-0.8,1.2-1.3c-7.7-10.5-15.4-20.9-22.8-31
		c19,6.5,36.1,17.5,50.3,33c14.3,15.6,22.2,34.4,26.6,55.4c10-9.5,16.6-20.4,20.3-33c0.3-1-0.5-2.2-0.7-3.2c0.5-0.7,1.6-1.5,1.8-2.5
		c3-14.4,0.6-28.1-5.8-41.1c-2.9-5.8-5.1-12-11-16.3c-3.8-2.8-5.6-8.2-8.6-12.2c-0.9-1.3-3.1-1.6-4.2-2.8c-1.7-1.9-2.9-4.2-4.3-6.3
		c-0.4,0.2-0.7,0.4-1.1,0.7c7.7,14.4,13.1,29.5,12.6,47.3c-2.4-4.4-3.6-8.1-6-10.6c-7.5-7.6-14.5-16.5-23.4-21.8
		c-17.4-10.4-36-19-54.3-27.9c-14.5-7.1-29.6-12.7-43.8-20.5c-7-3.9-14.1-7.7-20.8-12.1c-5.7-3.7-10.8-8.3-16.9-13.1
		C284.2,107.2,293.7,123.4,309.2,135.8z M694.6,88.4c-9.6,10.2-21.2,17.4-33.6,23.4c-17.8,8.6-35.8,16.7-53.6,25.3
		c-15.5,7.5-31.2,14.9-46,23.6c-13.3,7.8-24.4,18.6-31.7,33c0-5.4,1.3-10.7,1.3-16c0-5.5,2.6-9.9,4.2-14.8
		c1.8-5.3,4.4-10.4,7.1-16.5c-4.1,4-7.5,7.1-10.5,10.5c-3.8,4.4-7.3,9-10.8,13.7c-6.6,8.9-10.8,19.1-13.3,29.8
		c-4.2,18.9,0.3,36.2,11.1,52c2.7,3.9,6.2,7.3,9.9,11.6c4.9-22,13.1-40.9,28-56.5c14.5-15.2,31.5-26.2,52.8-33.3
		c-11.6,9.6-19,21-25.1,33.2c1.1-0.4,1.8-1.4,2.7-1.8c16-7.1,32.1-14,48.1-21.1c11-4.8,22.1-9.3,32.7-14.8
		c10.7-5.5,20-12.9,28.6-21.7c11.1-11.4,17.7-24.7,22.2-41c-16.6,16.3-35.6,24.6-57.7,29C677.5,123.1,687.3,106.7,694.6,88.4z
		 M514.5,386.4c5,18.2,12.8,35.1,22.3,51.3c-3.4-3.2-6.4-6.7-9.2-10.3c-2.8-3.5-5.5-7.1-8.2-10.7c6.2,25.4,17.4,48.4,31.7,69.9
		c20.4-4.7,27.4-15.2,24-35.7c20.6-10,23.3-34.9,17.1-49.4c-17.9,0.3-34.5-5.3-50.3-13.5c-0.3,0.5-0.6,1-0.8,1.5
		c10.6,8.4,21.2,16.7,31.8,25.1c-18.7-7.2-35.4-17.5-49.4-32c-0.5,0.4-1,0.9-1.4,1.3c10.9,14.4,21.9,28.9,32.1,42.4
		C539.2,415.9,525.3,402.7,514.5,386.4z M430.9,389.2c-0.3-0.4-0.6-0.7-0.9-1.1c-2.8,1.4-5.6,2.8-8.4,4.1
		c-12.8,5.8-26.2,9.3-40.4,9.7c-1.1,0-2.6,1.5-3,2.6c-2.8,8.1-2.5,16.3-0.4,24.4c2.6,10.4,9.4,17.4,18.9,22.6
		c-2.9,6.7-2.9,13.2,0.2,19.4c4.3,8.9,12.6,12.6,21.3,15.6c0.9,0.3,2.9-0.8,3.6-1.9c2.7-4,5.2-8,7.4-12.3
		c4.3-8.7,8.5-17.5,12.4-26.5c4.2-9.6,8-19.3,11.9-29c-0.5-0.2-1-0.5-1.5-0.7c-5,8.9-11.2,16.6-18,22.8c2.2-5.2,3.7-12.1,7.6-16.7
		c4.4-5.1,6.3-11.1,9-16.8c2.7-5.6,4.2-11.8,6.2-17.8c-0.4-0.2-0.8-0.3-1.2-0.5c-2.7,4.3-4.9,8.9-8.1,12.9c-2.9,3.6-6.9,6.3-10,9.8
		c-3.1,3.5-6.4,6.5-10,9.4c-3.9,3.1-8,6-11.9,9c11.2-12.8,22.2-26,30.3-41.4c-1.1-0.1-1.9-0.1-2.4,0.4
		c-11.6,10.7-24.6,19.4-39.1,25.9c-1.4,0.6-2.5,2.1-3.6,3.1c-0.6-0.5-1.3-1.1-2.2-1.8c4.6-3.2,9-6.1,13.1-9.2c1.3-1,2-2.8,2.8-4
		c1.6-0.6,3.2-0.9,4.4-1.8c1.3-1,1.8-2.9,3.1-3.9C424.9,393.2,427.9,391.2,430.9,389.2z M626.4,571.2c15.7-12.9,20.4-31.7,15.9-48.4
		c-0.3-1.2-1.5-2.7-2.6-3c-3.9-1.1-6.8-3.4-10.1-5.8c-12.6-9.2-23.2-20.1-31.6-33.2c-2.9-4.5-5.5-9.1-8.5-14.2
		c-3.7,17.8-17.7,23.7-32.1,30C576.5,525.3,597.3,552.1,626.4,571.2z M381.9,467.4c-2.7,4.4-5,8.6-7.7,12.6
		c-7.2,10.5-14.5,21.1-25.1,28.5c-5.8,4-11.7,7.8-17.5,11.7c-0.8,0.6-1.9,1.3-2.1,2.2c-5.6,18.5,1.5,34.8,12.8,46.8
		c1,1,4.4,1.2,5.7,0.3c5-3.3,10-6.9,14.4-11c8.1-7.6,16.3-15.3,23.4-23.8c10.1-12,19.2-24.8,29.6-38.4c-9.4-0.5-15.1-5.9-21.2-9.7
		C387.5,482.5,383.7,475.3,381.9,467.4z M485.2,388.5c0.7-0.4,1.3-0.7,1.8-1.1c0.7-0.7,1.4-1.3,1.9-2.1c5.9-10.3,12.3-20.3,17.3-31
		c2.9-6.2,4.3-13.1,4.5-20.6c0.1-5.7,0-11.3-1.4-16.5c-3.4-13.1-12.1-22.4-23.4-29.7c-8.9,5.6-16,12.7-20.6,22
		c-1.8,3.7-2.6,7.7-3.4,11.7c-0.9,4.6-1.9,9.1-1.6,13.8c0.2,3.2,1.6,6.4,2.1,9.6C465.2,361.7,474.9,375.1,485.2,388.5z M659.3,451.8
		c2.7,1.5,4.9,3.8,7.3,3.9c3.5,0.2,7.2-0.6,10.4-2c9.4-3.9,18.9-7.7,27.8-12.5c5.3-2.9,10.1-7.2,14.4-11.6c3.5-3.6,7-7.8,8.6-12.4
		c3-8.3,2.1-17.1-0.1-25.7c-2.8-10.7-7.9-20.2-15.7-28.5c-3.8,6.6-7.3,12.7-12.3,18c-6.9,7.2-15,12.7-23.7,17.3
		c-2.2,1.1-2.4,2.4-2.6,4.8c-0.4,5.3,0.5,10.5-0.7,15.8C670.2,430.2,666.8,441.2,659.3,451.8z M259.9,363.7
		c-0.8,0.3-1.2,0.3-1.4,0.5c-0.5,0.4-0.9,0.9-1.3,1.4c-5.4,6.8-8.7,14.6-11.9,22.7c-3.2,8-2.9,15.8-3.1,23.8
		c-0.2,7.3,4.9,12.4,9.3,17.1c14.7,15.5,33.1,24.1,54.2,26.9c1.2,0.2,3.1-1.2,3.8-2.4c0.7-1.2,1.1-3.4,0.4-4.5
		c-5.6-9.1-9.3-18.8-11-29.3c-0.7-4.3-2-8.6-1.5-12.8c0.6-4.8,0.6-8.3-4.8-9.9c-1.6-0.5-2.9-1.9-4.5-2.6c-1.1-0.5-2.3-0.5-3.3-0.8
		c-1.1-1.3-2.1-3.1-3.6-4.1c-5.1-3.5-9.3-7.8-13.2-12.6c-1.2-1.5-3.6-2.3-4.4-3.9C262.1,370.4,261.2,366.9,259.9,363.7z
		 M653.6,527.4c0,5.9,0.6,11.1-0.1,16c-1.7,12.1-8.1,22-15.9,31c-2.6,3-1.2,4.4,0.9,6.1c0.4,0.3,1.3,0.1,1.7,0.5
		c5,4.1,9.6,8.7,14.9,12.3c6.4,4.4,13.3,4,21,2.8c18.7-2.8,30.5-13.3,38.5-29.4c0.6-1.3,0.7-2.9,1.1-4.3c1.3-3.9,2.6-7.9,4.1-12.4
		C695.1,548.9,673.3,542.2,653.6,527.4z M318,527.8c-19.8,15.3-41.9,21.1-66.5,22.7c1.7,4.6,3.6,8.4,4.5,12.4
		c3.2,14.6,13.2,23.2,25.6,29.7c3.8,2,8.4,2.7,12.7,3.7c6.1,1.4,12.4,2.9,18.4-0.6c1.8-1.1,3.5-2.7,5.4-3.4
		c7.7-2.9,12.6-9.1,18.2-14.5C323.9,563.3,314.3,548.5,318,527.8z M366.5,436.2c0.2-0.1-0.4,0.3-1.1,0.6
		c-13.1,7.5-26.7,13.7-41.9,15.2c-4.2,0.4-5.7,2.3-6.6,5.9c-4.5,18.2-3.8,35.4,8.1,51.2c3,3.9,4.8,3.9,8.4,1.6
		c20.7-13.7,35.3-32.4,44.8-55.1c0.5-1.2,0-3.3-0.8-4.5C374,446.2,370.3,441.4,366.5,436.2z M603.3,434.8c0.5,1.5,1.1,2.4,0.9,2.7
		c-2.9,4.1-5.6,8.5-9.1,12.1c-2.5,2.5-2.8,4.5-1.3,7.4c5.4,10.5,10.8,20.7,18.7,29.9c8.2,9.7,17.1,18.1,28,24.5
		c1,0.6,3.4,0.5,3.7-0.1c3.7-6,7.9-11.8,10.3-18.3c4.4-12,3.3-24.4-0.5-36.5c-0.9-2.9-2-4.4-5.4-4.6c-4.1-0.3-8.2-1.3-12.2-2.4
		c-5.4-1.4-11-2.7-16-5C614.6,442,609.4,438.4,603.3,434.8z M666,495.9c4.3,0.3,7.7,0.8,11.2,0.8c1.4,0,2.8-1.4,4.2-1.4
		c2,0,4,1.3,5.9,1.2c13-1.2,25.7-4.1,37.7-9.5c4.5-2,9.2-4.2,10.3-9.9c1.5-8.1,3-16.3,0.5-24.4c-2.1-6.9-4.8-13.6-7.6-21.1
		c-17.3,18.8-37.6,29.1-61.8,32.2C669.7,474.6,669.3,485,666,495.9z M243,431.6c-2.6,7.9-5.2,14.6-6.9,21.6c-0.9,3.8,0.3,8-0.5,11.8
		c-2.3,10.5,1,18.7,10.7,22c9.8,3.3,20.1,5.3,30.1,8.2c9.5,2.7,19,2,28.8,0.9c-3.3-10.8-3.8-21.4-0.4-32.2
		C280.7,460.7,260.5,450.4,243,431.6z M456.5,682.3c0.9,0.6,2.6,1.2,3.6,2.4c5.6,6.3,9.9,13.3,11.5,21.7c0.5,2.3,1.3,3.2,3.7,4
		c6.8,2.2,13.4,1.6,20.1-0.1c2.3-0.6,3.6-1.3,4.3-4c2.3-9.4,6.4-17.8,14.5-24.2c3.6,6.2,6.9,12.1,10.1,17.6c2.5-5.5,4.7-10.9,7.4-16
		c2.6-4.8,4-5.1,8.5-1.8c3.3,2.5,6,5.7,9,8.6c1.1-4.6,2.2-9.2,3.4-13.9c-13.2-2.8-23.1-11.9-32-21.8c-2.9,4.5-5.6,8.9-8.6,13.1
		c-5.9,8.3-13.9,14.2-22.3,19.7c-1.7,1.1-5,2-6.4,1.1c-5.8-3.7-11.9-7.4-16.6-12.4c-6-6.3-10.9-13.8-16.4-21
		c-8.5,10.1-18.3,19.2-31.7,21.5c1.4,5.1,2.7,9.5,3.8,13.4c4.3-3.7,8.7-7.4,14.1-12.1c4,8.2,7.4,14.9,10.7,21.7
		C450,694.4,453,688.8,456.5,682.3z M731.8,493.4c-9.7,2.9-18.3,5.5-27,7.9c-9.7,2.7-19.7,4.4-29.6,2.6c-9.4-1.7-15.3,1-18.4,10
		c0,0.1-0.2,0.2-0.3,0.4c-1.7,2.4-1.5,4.6,1.1,6.3c5.4,3.5,10.6,7.3,16.2,10.3c12.9,6.9,27,9.7,41.4,11.2c6.9,0.7,12.5-1.4,15.7-8.2
		c2.2-4.8,3.3-9.7,4.5-14.9C737.5,509.2,733.8,501.6,731.8,493.4z M317.4,519.2c-2.9-4.9-5.4-8.4-7.1-12.3c-1.4-3.2-3.1-3.5-6.2-3.1
		c-9.8,1.4-19.7,1.6-29.4-0.6c-7.3-1.7-14.6-3.5-22-5.2c-3-0.7-7-0.6-8.9-2.5c-4.2-4.3-4.5-0.6-5.5,2c-3.6,9.2-4,18.7-1.7,28.2
		c3,12.1,11.4,18.3,22.2,16.5c16-2.6,32-4.8,45.2-15.8C307.7,523.2,312.7,521.6,317.4,519.2z M453.5,572.6
		c1.4,13.8,17.5,36.1,30.1,41c1.4,0.6,3.9,0.1,5.2-0.9c4.6-3.3,9.5-6.5,13.3-10.6c3.4-3.6,5.7-8.2,8.2-12.6c3.1-5.4,5.9-11.1,9-16.8
		c-15.6-6-24.9-17.2-33.2-29.8C477.1,555.3,468.1,567.1,453.5,572.6z M481.6,539.4c-5.3-4.8-10.5-9.1-15.2-13.9
		c-6.3-6.4-10.5-14.1-14.1-22.3c-0.5-1.2-3.2-2.2-4.8-2c-3.6,0.4-7.2,1.2-10.6,2.4c-2,0.7-4.3,1.8-5.6,3.5
		c-5,6.3-9.7,12.9-14.2,19.5c-1,1.5-1.3,4.5-0.5,5.8c3.6,5.6,7.4,11.1,12,15.9c5.9,6.3,12.5,12,19.1,17.5c1.5,1.2,4.9,1.3,6.9,0.5
		C467.5,561,474.1,549.5,481.6,539.4z M521,500.3c-4.2,7.4-7.6,15.1-12.7,21.5c-5.2,6.4-12.1,11.5-18.8,17.7
		c0.5,0.3,1.6,0.8,2.2,1.5c5.7,6.7,10.7,14.2,17.2,20.1c8.4,7.8,11.6,7.4,20.6,0.3c10.2-8.1,19.6-17,25-29.2
		c0.7-1.6,0.4-4.4-0.5-5.7c-2.4-3.4-5.8-6-8.2-9.4c-2.6-3.6-4.4-7.7-6.6-11.5c-0.6-1-1.6-2.1-2.6-2.3
		C531.3,502.2,526,501.3,521,500.3z M558.9,602.3c-7.8,19.3-21.8,33-36.1,46.6c7.9,8.3,15,17.2,26.4,20.7c4.4,1.3,11.7-1.1,13.9-5
		c0.3-0.5-0.4-1.5-0.6-2.4c7.7,1.5,25.3-25.4,27.1-41C577.2,619,567.7,611.8,558.9,602.3z M448.7,649.2
		c-12.5-11.3-23.8-22.7-31.7-37.1c-0.5-0.9-2.1-1.3-2-1.2c-0.7-3.3-1.2-5.6-1.8-7.9c-6.1,5-11.4,10-17.3,14c-3.2,2.1-7.4,3-11.2,3.9
		c-3.3,0.8-2.9,2.6-2.3,4.9c3,11,8.3,21,16,29.3c4.7,5.1,8.3,12,16.4,12.9c1.5,6,5.6,3,8.4,2C433.9,666.1,440.9,657.5,448.7,649.2z
		 M663.8,387.2c-7.6,3.5-14.6,6.9-21.8,10.1c-3,1.3-6.1,2.3-8.9,3.3c-10.2,0.9-20.3,1.9-30.2,2.8c0.8,5.6,1.4,11,2.3,16.3
		c0.7,3.8-0.9,8.6,4.9,10.5c5.5,1.8,10.8,4.6,16.2,6.8c5.1,2.1,10.3,4.2,15.6,6c1.5,0.5,3.8-0.8,5.1-0.1c5.1,2.7,6.8,2.6,8.7-2.7
		c2-5.6,5.1-10.8,4.5-17.5c-0.5-4.6,3-9.5,3.4-14.4C664.3,401,663.8,393.8,663.8,387.2z M307.2,385.3c0,6.6-0.5,12,0.1,17.3
		c0.8,6.8,2.2,13.5,3.7,20.2c1.4,6.4,3.4,12.6,5,18.9c0.8,3.3,2.8,3.6,5.7,3.2c13.1-2,25.5-6.3,36.9-13.1c3.3-2,9.7-2.7,6.3-9.5
		c-0.1-0.2,0.6-0.7,0.7-1.2c0.9-5.7,1.8-11.5,2.7-16.7c-11.1-1.6-21.8-2.8-32.3-4.9C325.9,397.4,316.1,393.6,307.2,385.3z
		 M553.8,601.6c-6.5-3.4-12.8-5.7-17.8-9.6c-5.1-4-8.8-9.6-13.1-14.5c-0.3,0.2-0.5,0.3-0.5,0.4c-0.4,1-0.9,2-1.3,3.1
		c-5.4,14.9-14.2,27.2-27.9,35.4c-3.5,2.1-3.3,3.7-1.6,6.7c5.4,9.5,12.9,16.7,22.9,21c1.7,0.7,5.1,0.2,6.3-1.1
		c8.4-8.7,16.8-17.5,24.5-26.8C549,612,551.1,606.5,553.8,601.6z M482.5,619c-8.8-4-15.9-9.8-21-17.4c-5-7.4-9.2-15.3-13.9-23.2
		c-6.9,11-17.3,18.2-29.6,23.1c0.6,1.8,1,3.2,1.6,4.5c7.4,15,18.8,26.9,31.1,37.9c1.3,1.2,4.6,1.3,6.5,0.6
		C469.1,639.8,475.9,630,482.5,619z M538.9,264.6c13.7,11.8,28,21.4,46.1,25.1c11.9,2.4,22.9,1.4,33.6-3.1
		c19.8-8.3,29.1-24.4,32.2-44.8c2.1-13.9,0.6-27.5-3.1-41.5c-6.6,1.9-13,3.8-19.9,5.8c9.4,11.2,13.1,23.3,11.6,37.1
		c-1.6,14.1-11.5,23-20.1,32.7c-10.6,2.4-20.8,7.2-32.2,4.5c-16.6-3.8-27.9-13.6-34.4-30.2C547.7,255.3,543.4,259.8,538.9,264.6z
		 M515.5,497.1c-12.6-6.9-21.8-17.1-29.7-29.1c-7.5,11.8-16.4,21.5-28,28.5c-0.8,0.5-1.1,2.9-0.7,4c4.3,11.6,11.5,21.2,21,29
		c6.4,5.3,6.7,5.6,12.9,1.4C503,522.7,510.3,510.8,515.5,497.1z M419.5,251.3c-3.7,6.4-6.5,12.4-11.7,16.9c-4.6,4.1-8.8,8.8-15.2,10
		c-6.8,1.2-13.8,3.2-20.4,2.6c-6.7-0.6-13.8-3-19.6-6.5c-21.2-12.6-29.9-42.5-9-68.2c-6.9-1.8-13.4-3.5-19.8-5.1
		c-0.5,0.9-0.8,1.1-0.8,1.4c-0.8,8.4-1.1,16.9-2.5,25.3c-1.4,8.7,0,17,2.5,25c4.9,15.7,13.9,27.6,30.2,34.1
		c6.4,2.6,12.8,4.1,19.2,4.5c19.9,1.2,36.5-7.7,51.9-19.2c2.9-2.2,5.4-4.8,7.9-7c-1.7-2.2-3-4.1-4.6-5.8c-1.6-1.6-3.5-2.8-5.3-4.2
		c-0.2,0.3-0.3,0.6-0.5,0.9C421,254.4,420.3,252.8,419.5,251.3z M516.4,651.1c-14.1-6-23.8-14.7-30.5-27.5
		c-7.2,12.8-16.6,22.3-30.1,27.1c5.2,13.7,14.9,23.2,26.5,31.2c2.3,1.5,4.1,1.9,6.3,0c5.4-4.6,11.4-8.7,16.2-13.9
		C509.2,663.1,512.4,657.1,516.4,651.1z M485.5,191.6c9.9-11.1,20-22.3,30.1-33.5c-5.6-7.5-19.1-18.2-27.2-21.8
		c-1.2-0.6-3.2-0.8-4.3-0.2c-10,5-18.6,11.9-26.3,19.9c-1.9,1.9-2.1,3.6,0.3,5.6c2.4,1.9,4.5,4.2,6.6,6.5
		C471.7,175.9,478.7,183.9,485.5,191.6z M525.7,571.6c5.5,8.9,12.6,16.3,22.3,21.2c6.6,3.4,9.5,3.4,14-2.5c4-5.2,7-11.2,10.8-16.6
		c3.5-5,3.7-11.2,6.3-16.5c0.5-1,0.1-3-0.7-3.8c-5.9-6.5-12-12.9-18.3-19.6c-3.5,8.2-8.8,14.7-14.9,20.5
		C539.1,560.1,532.6,565.5,525.7,571.6z M445.7,572c-6.7-6-13.6-11.4-19.7-17.7c-5.7-6-10.6-12.8-15.7-19.2
		c-4.8,5.1-10.2,11.1-16,16.8c-2.3,2.2-2.7,4.1-1.8,7.1c3.5,12.2,9.3,23.1,17.7,32.6c3.9,4.4,6.1,5,11.4,2.3
		c3.1-1.6,5.7-4.1,8.8-5.8C437.2,584.2,441.7,578.3,445.7,572z M475.4,401.1c-1.5,6.8-2.7,12.7-4.3,18.5c-1.5,5.8-3.6,11.5-5.2,17.3
		c-0.5,1.9-1.2,4.5-0.3,5.8c4.1,6.7,10,11.7,17,15.2c1.5,0.8,4.3,0.8,5.6-0.1c5.2-3.6,10.4-7.3,14.9-11.7c2.5-2.4,4.2-5.8,2.3-10
		c-2.2-5-3.7-10.3-5.1-15.6c-1.6-6.2-2.8-12.5-4.2-19.2c-3.3,2.5-6.1,4.8-9,6.8c-1.8,1.2-3.5,2-5.2-0.8
		C480.5,405.1,477.9,403.5,475.4,401.1z M603.7,216.1c12.3,9.9,15.6,18.3,11.1,28.6c-1.7,3.9-3.9,8.9-7.3,10.6
		c-4.4,2.3-10.3,3-15.3,2.3c-10.1-1.4-17.1-7.1-18.9-23.3c-2.5,1.9-4.7,3.5-7,5.2c-3.3,2.5-5.4,5-3.1,9.6
		c3.6,7.4,8.4,13.3,15.5,17.4c8,4.6,16.7,5.3,25.2,3.1c13-3.3,21.5-12.1,24.8-25.1c3.1-12.2-0.2-23-8.8-32.1c-1-1.1-3.4-1.9-4.8-1.5
		C611.3,212.3,607.8,214.3,603.7,216.1z M451.5,154.8c9.1-9.5,18.3-17.9,29.7-23.4c0.7-0.3,1.3-1.9,1.1-2.7
		c-2.8-10-7.3-19.1-14.5-26.7c-3-3.2-6.8-4.3-10.7-1.6c-6,4.1-12.2,8-17.7,12.7c-5.2,4.4-5,4.8-1,10.4
		C445.1,132.8,448.7,143.2,451.5,154.8z M536.3,117.5c-6.5-8.1-14.7-15-25.3-18.5c-1.5-0.5-3.9,0.1-5.2,1c-2.2,1.6-4.3,3.7-5.7,6
		c-3.5,6-6.8,12.1-9.9,18.3c-1.9,3.7-0.5,6.3,3.1,8.6c5.8,3.7,11.5,7.9,16.9,12.2c3.4,2.7,6.4,6,9.5,8.9c2.2-6.4,3.7-12.8,6.4-18.6
		C528.8,129.4,532.6,123.9,536.3,117.5z M367.8,216.5c-3.5-1.6-6.9-2.9-10-4.6c-2.8-1.6-4.6-0.9-6.6,1.3
		c-10.5,11.3-13.2,28.6-3.2,43.4c4.3,6.3,10.4,10.5,17.6,13.1c6.9,2.6,14.2,1.7,20.7-0.1c11.8-3.3,19.4-11.7,23-23.4
		c0.3-1.1,0-3-0.8-3.7c-3.2-2.8-6.7-5.3-10.3-8c-1.3,14.1-7.6,22.3-18.1,23.5c-10.2,1.2-19.1-2.5-23.5-12.8
		C352.2,234.9,355.5,226.3,367.8,216.5z M584.9,559.7c-3.1,6.9-6.4,13.7-9.3,20.7c-2.9,7.1-8.8,11.9-13.6,17.9
		c3.4,3.2,6.5,6.1,9.6,9c2.7,2.5,6.3,3.6,9.4,5.6c7.9,5,10.8,4.2,15.7-3.2c5.4-8,8.6-16.9,10.2-26.4c0.6-3.3-0.2-5.8-3.2-8
		C597.3,570.3,591.3,565,584.9,559.7z M387,559.7c-7.3,6-14.5,11.9-21.5,18c-0.9,0.7-1.4,2.5-1.2,3.6c0.6,3.7,1.2,7.6,2.5,11.1
		c2.2,5.9,4.8,11.7,7.7,17.3c3.5,6.9,5.4,7.7,11.9,5.5c9.3-3.2,16.4-9.3,22.6-16.6c-2.1-4.7-7.1-6.6-9.1-11.4
		c-1.8-4.5-5.4-8.4-7.5-12.8C390.2,569.7,388.8,564.8,387,559.7z M373.1,620.1c-5.4-12.6-10.5-24.6-15.5-36.2
		c-11.3,7.1-23.5,14.9-36.6,23.1c4.9,6.1,10,12,14.6,18.4c2.5,3.4,5.2,4.4,9.2,4.2C355.5,629.1,365,625.4,373.1,620.1z M650.5,606.8
		c-13.3-8.4-25.7-16.2-37.7-23.8c-1.9,6.2-3.4,12.6-5.9,18.5c-2.5,5.9-6.1,11.4-9.3,17.2c0.4,0.1,1,0,1.3,0.2
		c8.9,8.1,19.7,10.3,31.3,10.2c1,0,2.4-0.3,3-1C638.9,621.1,644.6,614.1,650.5,606.8z M297.8,391c7-7.5,1.1-12.3-4.1-17.2
		c9.1-2.1,17.5-4.1,26-6c-9.7-5-18.9-9.5-27.8-14.3c-9.6-5.2-17.1-12.8-23.2-22.3c-1.1,1.7-2.5,3-3,4.6c-1.4,5.1-4.6,11-3.2,15.2
		C268.8,368.8,280.5,382.4,297.8,391z M702.5,332.1c-3.7,4.1-6.9,8.6-11,12.3c-4.1,3.7-8.8,6.8-13.6,9.7c-4.6,2.8-9.8,4.7-14.3,7.6
		c-3.7,2.4-8,3.1-12,5.9c8.9,1.9,17.8,3.8,26.7,5.8c-9.3,7.4-9.3,7.4-5.7,17.8c18.4-8.7,29.9-23.4,36.8-42
		C711,345.4,705.9,334.5,702.5,332.1z M399.6,135.5c3.7-3.6,7.1-7.9,11.5-10.9c4.4-3,9.8-4.5,14.5-7.1c1.4-0.8,3.2-3.2,2.9-4.6
		c-1.4-7.4-3.2-14.8-5.3-22.1c-1.2-4.1-1.8-8.1-8.9-4.8c-5.8,2.7-12,4.9-17.1,8.9c-6.8,5.4-6.5,6.2-4,14.4
		C395.8,117.9,397.5,126.7,399.6,135.5z M485.7,121.5c4-11.2,9.8-19.7,17.7-26.8c0.6-0.5,0.6-1.9,0.5-2.8
		c-0.8-10.1-6.7-17.6-13-24.7c-1.3-1.5-3.6-4.1-4.3-3.8c-2.1,1-3.3,3.6-5.4,4.8c-8.1,5.1-10.7,13.4-13.4,21.7
		c-0.5,1.7,0.1,4.7,1.3,5.9C476.3,102.7,481.5,110.9,485.7,121.5z M571.2,135.8c3.1-11.1,6-20.5,8.3-30c0.5-2.1-0.1-5.2-1.3-6.9
		c-6-8-14.6-12.1-24.1-14.5c-1-0.3-3,0.4-3.5,1.2c-4.8,8.8-7.6,18.2-7.5,28.3c0,1.1,1.3,2.5,2.4,3.1c6,3.4,12.4,6.3,18.2,10.1
		C566.6,129.2,568.6,132.7,571.2,135.8z M345.7,635.4c0.9,1,1.6,2.1,2.6,2.9c13,10.1,26.2,19.9,38.9,30.3c6.1,5,11.9,5.3,18.6,1.3
		c-14.8-11.7-24.2-27.1-29.1-45c-5.3,2.4-10.1,4.9-15.1,6.6C356.5,633.1,351.2,634,345.7,635.4z M564.8,670.3
		c5.7,0.4,9.6,4.5,14.3,1.2c11-7.8,22-15.6,32.8-23.7c5-3.7,9.4-8.3,13.5-11.9c-10.5-3.6-20.6-7.2-30.9-10.8
		C590.1,642.5,580.4,657.4,564.8,670.3z M434.2,110.8c7-7.4,15-12.9,24.3-16.6c0.8-0.3,1.7-2.4,1.4-3.2
		c-3.5-10.1-8.2-19.7-15.5-27.7c-1.9-2.1-4.5-2.5-6.6,0c-3.4,3.9-7,7.8-10.1,12.1c-2.2,3.1-4,6.6-0.7,10.6c1.6,2,2.3,4.9,3,7.5
		C431.5,99.1,432.7,104.7,434.2,110.8z M537.9,109.3c0.8-9,3.2-18.4,8.2-27.1c0.5-0.9,0.5-2.6-0.1-3.4c-4.1-5.5-8.1-10.9-12.7-16
		c-0.9-1-4.6-1-5.7-0.1c-8.9,8.2-12.4,19.5-16.7,29C520.5,98,529.4,103.8,537.9,109.3z M481.5,464.4c-6.7-5.4-13.1-10.5-19.1-15.4
		c-8,16.3-15.9,32.7-23.8,48.8C453.3,496.5,473.2,481.2,481.5,464.4z M532.6,496.2c-8-16-16-32.1-23.7-47.5
		c-6.1,5-12.5,10.2-19,15.5C500.5,483.8,522.3,498.1,532.6,496.2z M610.5,113.7c0.2-2.2-0.3-5.5,0.7-8.2
		c4.6-11.7-1.3-18.4-10.6-23.7c-0.3-0.2-0.5-0.4-0.8-0.5c-4.6-2-8.9-5.4-15-3.8c0.4,6.5,0.6,12.6,1.3,18.6c0.2,1.8,1.3,4.2,2.7,5
		C596,105.7,603.5,109.7,610.5,113.7z M361.2,114.2c5.6-3.5,10.8-7.9,16.9-10.2c5.8-2.3,7.7-5.7,7.7-11.3c0-3.9,0.2-7.8,0.4-11.6
		c0.2-3.6-1.3-4.3-4.7-3.5c-9.3,2.2-15.9,8.3-22.5,14.6c-0.4,0.4-0.6,1.4-0.5,2C359.4,100.9,360.4,107.6,361.2,114.2z M609.9,122.4
		c-6-7-13.1-12-21.3-15.2c-1.2-0.5-4.2,1.2-5,2.6c-1.5,2.7-2.4,5.8-3,8.9c-1.3,6.8-2.2,13.7-3.4,21.2
		C588.6,133.8,599,128.2,609.9,122.4z M393.3,139.8c0.5-0.1,0.9-0.3,1.4-0.4c-2.1-9.6-4.1-19.2-6.5-28.8c-0.9-3.7-3.7-4.6-7.1-2.6
		c-4.4,2.6-8.9,5.3-13.1,8.2c-2.4,1.6-4.4,3.8-7.1,6.2c6.3,3.4,11.5,6.1,16.6,8.8C382.8,134.1,388.1,137,393.3,139.8z M580.3,92.8
		c0-6.3,0-11.1,0-16c0-0.4-0.6-0.9-1-1.1c-4-2.5-7.8-5.3-12-7.5c-8.4-4.5-17.4-6.7-27-7.2c3.7,5.6,7,11,10.9,16
		c1.1,1.4,3.7,1.7,5.7,2.2c2.2,0.6,4.9,0.1,6.7,1.2C569,84,574,88.1,580.3,92.8z M391.3,93c7.1-6.1,14.4-11,23.3-13
		c2-0.4,4.5-1.1,5.5-2.5c3.8-5.1,7.2-10.6,10.7-15.9c-9.3-0.6-30.5,6.6-37,12.8c-1.4,1.3-2.2,3.7-2.4,5.6
		C391.1,84.1,391.3,88.2,391.3,93z M480.3,58.9c-10,0-20.7,0-31.3,0c5.2,8.9,9.9,16.9,14,23.9C468.7,75,474.6,66.9,480.3,58.9z
		 M571.5,722.2c0.5-0.1,1-0.3,1.5-0.4c2.2-15.2,1-29.8-8.5-43.3c-5,5-7,10.4-6.8,16.7c0,1.1-1.7,2.7,1.4,3.9c2.8,1,5,4.7,6.4,7.7
		C568,711.7,569.5,717.1,571.5,722.2z M429.7,741.8c10.2-13,9.5-40.3,3.2-49.6C423.3,708.2,426.1,724.6,429.7,741.8z M398.4,721.5
		c1.5-1.6,2.1-2.1,2.5-2.7c4.2-6.4,5.9-14.4,12.4-19.3c0.5-0.4,1.1-1.4,1-2c-0.7-6.7-1.5-13.5-7.5-18.7
		C397.9,691.7,396.3,705.5,398.4,721.5z M508.2,82.6c4.2-7.1,8.9-15,14.3-24.2c-11.5,0-21.7,0-31.4,0
		C497,66.8,502.9,75.1,508.2,82.6z M537.9,691.4c-7.1,19.3-4.3,40,4.3,50C545,724.3,548.2,707.8,537.9,691.4z M632.2,110.6
		c4.2-1.6,7.1-2.7,11-4.2c-3.5-1.9-5.9-3.2-9.1-4.9c-0.4-2.5-8.3-5.7-16.7-4.9c-0.6,7.2-1.3,14.6-1.9,22c0.4,0.2,0.9,0.5,1.3,0.7
		C621.9,115.5,628.9,115,632.2,110.6z M329,106.7c4.4,2.4,8.5,3.3,12.1,5.8c4,2.8,9.1,4.3,14.8,6.9c-0.7-8.2-1.4-15.7-2.1-23.5
		C343.8,97.2,335.9,100.3,329,106.7z M558.9,129.2c-4.6-2.2-9-4.3-13.3-6.5c-2.8-1.4-4.9-0.7-6.7,1.4c-6.1,7.1-9,15.8-11.8,24.2
		C537.4,142.1,547.7,135.9,558.9,129.2z M445.2,149c-2.9-6.6-5.8-12-7.6-17.8c-0.6-1.9-4.6,1.3-2.7-2.7c1-2.1-4.8-6.9-7.3-6
		c-5,1.9-9.7,4.5-15,7C423.7,136.2,433.8,142.2,445.2,149z M424.7,157.3c-4.2-8.7-8.5-17.3-13.2-26.9c-4.2,5.1-7.7,9.2-11.3,13.6
		c8,5.2,15.2,9.8,22.4,14.4C422.7,158.5,423.3,158,424.7,157.3z M560.3,130.7c-5.5,10.1-11.4,18.6-13.7,29.5
		c8.5-5.8,16.3-11.2,24.8-17C567.6,139,564.1,135.1,560.3,130.7z M465.3,732c1-12.4-0.3-23.9-7.6-35.3c-3.1,5.8-5.7,10.8-7.7,14.6
		C455.3,718.6,460.1,725,465.3,732z M506.3,732.6c3.1-4.8,5.4-8.5,7.8-12.2c1.6-2.4,2.7-6.1,4.8-6.8c3.3-1.2,2.5-2.5,1.6-4.3
		c-2.2-4-4.6-7.9-7.1-12.1C506.1,707.9,504.9,719.4,506.3,732.6z"/>
	<path class="st0" d="M260.6,216.3c6.6,8.9,13.9,14.8,24.6,17.8c-4-15.2-5.5-30-0.6-44.7c-0.2,13-0.7,26.1,4.1,38.7
		c0-4.3,0-8.5,0-12.8c0.3,0,0.5,0,0.8,0c0.2,3.8,0.5,7.6,0.7,11.4c0.2,0,0.4,0,0.7,0c1.6-8.8,3.3-17.7,4.9-26.5c0.3,0,0.7,0.1,1,0.1
		c-1.2,8.7-2.4,17.3-3.6,26c0.5,0.1,0.9,0.2,1.4,0.3c1.1-3.5,2.1-7.1,3.2-10.6c0.4,0.1,0.8,0.1,1.2,0.2c-0.4,4.1-0.8,8.2-1.2,12.2
		c4.5-10.2,8.8-20.1,13.1-30c0.3,0.1,0.6,0.2,0.8,0.3c-1.4,5.7-2.9,11.3-4.2,17c-3.3,15.2-1.6,29.9,4.4,44.1
		c4.6,11,12,19.8,20.9,27.6c21,18.2,44.1,22.9,70.2,12.1c11.4-4.7,21.5-11.3,30.7-19.5c0.9-0.8,1.9-1.6,3-2.1
		c-4.9,10.7-13.3,18.3-22.4,25.4c13.2-3,22.6-11.4,31.3-21.1c-4.7,11-12.8,19.3-22.9,27.6c14.5-4.7,24.1-13.6,32.3-24.4
		c-3.6,11.6-11.7,20.1-21.1,29.2c10.1-3.6,17.8-8.8,22.5-16.6c7.9-13,14.7-26.7,21.6-40.3c3-6,5.1-12.5,7.9-19.4
		c2.9,8.1,5.5,15.9,8.4,23.5c0.6,1.6,2.1,2.8,2.9,4.3c2.8,5.7,5.2,11.6,8.4,17.1c3.4,5.8,7.3,11.4,11.2,16.9
		c5.2,7.5,13.3,11.3,21.4,15.1c-8.2-8.4-16.8-16.5-20.8-28.1c8.4,9.5,17.4,17.9,30.2,21.4c-4.1-3.8-8.5-7.4-12.2-11.6
		c-3.8-4.5-6.8-9.6-9.7-14.8c8.9,9.6,18.7,17.6,31.5,21.3c-8.9-7.5-17.5-15.2-22.5-24.9c9,5.8,18.2,12.4,27.9,18.1
		c10.7,6.2,28,10.7,42,7.6c6-1.3,11.9-3.2,17.5-5.8c10.4-4.7,18.3-12.6,26.2-20.7c6.4-6.6,10.3-14.6,13.8-22.5
		c2.7-5.9,2.7-13.2,3.2-19.9c0.7-10.8-0.7-21.4-4.3-31.6c-0.2-0.7-0.2-1.5-0.3-2.3c0.4-0.2,0.8-0.3,1.2-0.5
		c3.8,8.5,7.6,17,11.5,25.4c0.4-0.1,0.8-0.2,1.2-0.4c-3.2-11.1-6.4-22.3-9.7-33.4c0.3-0.1,0.7-0.2,1-0.3
		c3.8,11.4,7.5,22.9,11.3,34.3c0.4,0,0.7-0.1,1.1-0.1c-1-8.1-2.1-16.2-3.1-24.3c0.4-0.1,0.8-0.1,1.2-0.2c1.4,8.8,2.8,17.7,4.4,27.2
		c0.6-1.6,1-2.7,1.6-4.6c0.4,1.6,0.7,2.5,1.2,4.6c3.6-12.6,3.8-24.5,3.3-37.3c4,6.2,3.9,17.7,0.1,41c7.5-0.5,14.4-5.2,23.9-17.2
		c-0.6,5.7-0.7,10.2-1.5,14.6c-1.1,6.3-1.8,12.9-4.1,18.9c-4.1,10.8-8.4,21.7-14.3,31.6c-4.2,7.1-9.1,14.5-18,18.1
		c20.5-0.6,27.1-2.7,45.1-14.7c-8.7,21.4-20.3,39-39.3,51.1c-18.6,11.9-39,16.7-61.1,16c4.6,10.4,14.8,18.3,33.8,26.3
		c-4,2.2-7.6,4.6-11.5,6.3c-18.3,7.8-36.9,9.9-56.2,3.7c-5.1-1.6-10.5-2.4-15.4-4.5c-8.2-3.5-16.4-7.1-24-11.6
		c-8.1-4.9-15.6-10.9-23.4-16.4c-2.4-1.7-2.7-3.6-2.1-6.6c2.6-12.6,3.3-25.3-1.7-37.6c-5.5-13.5-15.2-22.6-29-26.9
		c-2.1-0.7-5.2-0.2-7.2,0.9c-6.5,3.6-13.8,6.7-18.6,12.1c-5.3,6-9,13.8-10.5,22.2c-1.7,9.5-1.5,18.9,0.8,28.2
		c0.9,3.6,0.2,6.1-2.8,8.6c-17.3,13.8-35.9,25.1-57.3,31.3c-17.2,5-34.5,6.3-51.7,0.6c-7.2-2.4-13.9-6.2-20.7-10
		c15-4.2,25.3-13.8,35-25.9c-58.9,1.2-90.6-34.7-100.6-66.2c6.1,3.1,12.4,6.9,19.2,9.6c6.8,2.7,14.1,3.6,22.5,3.7
		C271.2,276.9,263.4,248.3,260.6,216.3z"/>
	<path class="st0" d="M309.2,135.8c-15.5-12.3-25-28.5-32.8-47c6.1,4.8,11.2,9.3,16.9,13.1c6.7,4.4,13.8,8.2,20.8,12.1
		c14.1,7.8,29.3,13.5,43.8,20.5c18.3,8.9,36.8,17.5,54.3,27.9c9,5.4,15.9,14.2,23.4,21.8c2.4,2.5,3.6,6.2,6,10.6
		c0.5-17.8-4.8-32.8-12.6-47.3c0.4-0.2,0.7-0.4,1.1-0.7c1.4,2.1,2.7,4.4,4.3,6.3c1.1,1.2,3.2,1.5,4.2,2.8c3,4,4.8,9.5,8.6,12.2
		c5.9,4.3,8.2,10.4,11,16.3c6.3,13,8.8,26.7,5.8,41.1c-0.2,1-1.3,1.9-1.8,2.5c0.2,1,1,2.2,0.7,3.2c-3.7,12.6-10.3,23.5-20.3,33
		c-4.4-21-12.4-39.8-26.6-55.4c-14.2-15.5-31.3-26.5-50.3-33c7.4,10,15.1,20.5,22.8,31c-0.4,0.4-0.8,0.8-1.2,1.3
		c-6.7-3.7-13.2-7.7-20-11.1c-3.2-1.6-7.1-1.7-10.5-3.1c-13.3-5.6-26.7-11.3-39.8-17.3c-17-7.7-33.3-16.8-45.2-31.8
		c-4.9-6.2-8.4-13.5-12.2-20.5c-2.6-4.8-4.6-10-6.2-15.5C269.4,123.8,288.5,131.4,309.2,135.8z"/>
	<path class="st0" d="M694.6,88.4c-7.2,18.3-17,34.8-33.6,47.6c22.1-4.4,41.1-12.7,57.7-29c-4.6,16.3-11.1,29.6-22.2,41
		c-8.6,8.8-17.9,16.2-28.6,21.7c-10.6,5.5-21.8,10-32.7,14.8c-16,7.1-32.1,14-48.1,21.1c-0.9,0.4-1.6,1.4-2.7,1.8
		c6.1-12.3,13.5-23.6,25.1-33.2c-21.3,7.2-38.3,18.1-52.8,33.3c-14.9,15.7-23,34.6-28,56.5c-3.6-4.2-7.1-7.6-9.9-11.6
		c-10.8-15.8-15.3-33.1-11.1-52c2.4-10.7,6.6-20.9,13.3-29.8c3.5-4.7,7-9.3,10.8-13.7c3-3.5,6.5-6.5,10.5-10.5
		c-2.7,6.2-5.3,11.2-7.1,16.5c-1.6,4.8-4.2,9.3-4.2,14.8c0,5.3-1.3,10.5-1.3,16c7.3-14.4,18.4-25.2,31.7-33
		c14.9-8.7,30.5-16,46-23.6c17.8-8.6,35.8-16.8,53.6-25.3C673.4,105.8,685,98.5,694.6,88.4z"/>
	<path class="st0" d="M514.5,386.4c10.8,16.4,24.6,29.5,39.5,39.9c-10.3-13.5-21.2-28-32.1-42.4c0.5-0.4,1-0.9,1.4-1.3
		c14,14.5,30.7,24.9,49.4,32c-10.6-8.4-21.2-16.7-31.8-25.1c0.3-0.5,0.6-1,0.8-1.5c15.9,8.1,32.4,13.8,50.3,13.5
		c6.2,14.5,3.5,39.5-17.1,49.4c3.4,20.5-3.6,30.9-24,35.7c-14.3-21.5-25.5-44.5-31.7-69.9c2.7,3.6,5.4,7.2,8.2,10.7
		c2.8,3.6,5.8,7.1,9.2,10.3C527.4,421.4,519.6,404.6,514.5,386.4z"/>
	<path class="st0" d="M430.9,389.2c-3,2-6,3.9-8.8,6.2c-1.3,1-1.9,2.9-3.1,3.9c-1.1,0.9-2.7,1.2-4.4,1.8c-0.8,1.2-1.5,3-2.8,4
		c-4.1,3.1-8.5,6-13.1,9.2c0.9,0.7,1.6,1.3,2.2,1.8c1.1-1,2.2-2.4,3.6-3.1c14.5-6.5,27.4-15.2,39.1-25.9c0.5-0.5,1.3-0.5,2.4-0.4
		c-8,15.4-19,28.6-30.3,41.4c4-3,8.1-5.9,11.9-9c3.6-2.9,6.9-5.9,10-9.4c3.1-3.5,7.1-6.2,10-9.8c3.1-3.9,5.4-8.6,8.1-12.9
		c0.4,0.2,0.8,0.3,1.2,0.5c-2,6-3.5,12.2-6.2,17.8c-2.7,5.7-4.6,11.7-9,16.8c-4,4.7-5.4,11.5-7.6,16.7c6.8-6.1,13.1-13.9,18-22.8
		c0.5,0.2,1,0.5,1.5,0.7c-4,9.7-7.8,19.4-11.9,29c-3.9,8.9-8.1,17.7-12.4,26.5c-2.1,4.3-4.7,8.3-7.4,12.3c-0.7,1-2.7,2.2-3.6,1.9
		c-8.7-2.9-17-6.6-21.3-15.6c-3-6.3-3.1-12.7-0.2-19.4c-9.4-5.1-16.2-12.2-18.9-22.6c-2.1-8.2-2.4-16.4,0.4-24.4
		c0.4-1.1,2-2.5,3-2.6c14.1-0.4,27.5-4,40.4-9.7c2.8-1.3,5.6-2.7,8.4-4.1C430.3,388.5,430.6,388.8,430.9,389.2z"/>
	<path class="st0" d="M626.4,571.2c-29.1-19.1-49.9-45.9-69-74.6c14.4-6.3,28.3-12.1,32.1-30c3.1,5.1,5.7,9.8,8.5,14.2
		c8.4,13.1,19,24,31.6,33.2c3.2,2.3,6.2,4.6,10.1,5.8c1.1,0.3,2.3,1.8,2.6,3C646.8,539.5,642,558.3,626.4,571.2z"/>
	<path class="st0" d="M381.9,467.4c1.8,8,5.6,15.1,12.2,19.2c6.1,3.8,11.8,9.2,21.2,9.7c-10.4,13.6-19.5,26.4-29.6,38.4
		c-7.1,8.5-15.3,16.1-23.4,23.8c-4.4,4.1-9.4,7.7-14.4,11c-1.3,0.9-4.7,0.8-5.7-0.3c-11.3-12.1-18.4-28.4-12.8-46.8
		c0.3-0.9,1.3-1.6,2.1-2.2c5.8-3.9,11.8-7.7,17.5-11.7c10.7-7.5,18-18,25.1-28.5C376.9,476,379.3,471.8,381.9,467.4z"/>
	<path class="st0" d="M485.2,388.5c-10.4-13.3-20-26.8-22.7-43.9c-0.5-3.2-1.9-6.4-2.1-9.6c-0.4-4.6,0.7-9.2,1.6-13.8
		c0.8-4.1,1.5-8.1,3.4-11.7c4.6-9.3,11.7-16.4,20.6-22c11.3,7.3,20,16.6,23.4,29.7c1.4,5.3,1.6,10.8,1.4,16.5
		c-0.2,7.5-1.6,14.3-4.5,20.6c-5,10.7-11.5,20.7-17.3,31c-0.5,0.8-1.2,1.5-1.9,2.1C486.5,387.8,485.9,388,485.2,388.5z"/>
	<path class="st0" d="M659.3,451.8c7.5-10.6,10.9-21.5,13.4-33c1.2-5.3,0.3-10.5,0.7-15.8c0.2-2.4,0.4-3.7,2.6-4.8
		c8.7-4.6,16.8-10,23.7-17.3c5-5.2,8.5-11.3,12.3-18c7.8,8.3,12.9,17.8,15.7,28.5c2.2,8.5,3.1,17.3,0.1,25.7
		c-1.6,4.6-5.1,8.9-8.6,12.4c-4.3,4.4-9,8.7-14.4,11.6c-8.9,4.8-18.4,8.7-27.8,12.5c-3.2,1.3-7,2.2-10.4,2
		C664.2,455.5,661.9,453.3,659.3,451.8z"/>
	<path class="st0" d="M259.9,363.7c1.2,3.2,2.2,6.7,3.8,9.7c0.9,1.6,3.2,2.4,4.4,3.9c3.9,4.7,8.1,9.1,13.2,12.6
		c1.5,1,2.5,2.7,3.6,4.1c1,0.2,2.2,0.3,3.3,0.8c1.6,0.7,2.9,2.1,4.5,2.6c5.4,1.6,5.4,5.1,4.8,9.9c-0.5,4.1,0.8,8.5,1.5,12.8
		c1.7,10.5,5.4,20.2,11,29.3c0.7,1.1,0.3,3.3-0.4,4.5c-0.7,1.2-2.6,2.5-3.8,2.4c-21.1-2.8-39.5-11.4-54.2-26.9
		c-4.5-4.7-9.6-9.8-9.3-17.1c0.2-8-0.1-15.8,3.1-23.8c3.2-8.1,6.5-15.9,11.9-22.7c0.4-0.5,0.8-1,1.3-1.4
		C258.8,364,259.1,363.9,259.9,363.7z"/>
	<path class="st0" d="M653.6,527.4c19.6,14.8,41.5,21.5,66.2,22.6c-1.5,4.5-2.8,8.4-4.1,12.4c-0.4,1.4-0.5,3-1.1,4.3
		c-8,16.1-19.8,26.7-38.5,29.4c-7.7,1.1-14.7,1.6-21-2.8c-5.3-3.7-9.9-8.2-14.9-12.3c-0.4-0.3-1.3-0.1-1.7-0.5
		c-2.1-1.7-3.5-3.1-0.9-6.1c7.8-9,14.2-18.9,15.9-31C654.2,538.5,653.6,533.3,653.6,527.4z"/>
	<path class="st0" d="M318,527.8c-3.6,20.7,5.9,35.6,18.2,49.9c-5.6,5.4-10.4,11.6-18.2,14.5c-1.9,0.7-3.6,2.3-5.4,3.4
		c-6,3.6-12.2,2.1-18.4,0.6c-4.3-1-8.9-1.7-12.7-3.7c-12.3-6.5-22.4-15.1-25.6-29.7c-0.9-4-2.8-7.8-4.5-12.4
		C276.1,548.8,298.2,543,318,527.8z"/>
	<path class="st0" d="M366.5,436.2c3.8,5.2,7.5,10,10.9,14.9c0.8,1.2,1.3,3.3,0.8,4.5c-9.5,22.7-24.1,41.4-44.8,55.1
		c-3.5,2.4-5.4,2.4-8.4-1.6c-11.8-15.8-12.6-33-8.1-51.2c0.9-3.6,2.4-5.4,6.6-5.9c15.2-1.6,28.8-7.8,41.9-15.2
		C366,436.5,366.7,436.1,366.5,436.2z"/>
	<path class="st0" d="M603.3,434.8c6.2,3.6,11.4,7.2,17,9.7c5.1,2.3,10.6,3.5,16,5c4,1.1,8.1,2.1,12.2,2.4c3.3,0.2,4.5,1.7,5.4,4.6
		c3.8,12.2,4.9,24.5,0.5,36.5c-2.4,6.5-6.6,12.3-10.3,18.3c-0.4,0.6-2.8,0.7-3.7,0.1c-10.9-6.4-19.7-14.8-28-24.5
		c-7.8-9.2-13.3-19.4-18.7-29.9c-1.5-3-1.2-4.9,1.3-7.4c3.5-3.6,6.2-8,9.1-12.1C604.4,437.2,603.8,436.3,603.3,434.8z"/>
	<path class="st0" d="M666,495.9c3.3-10.9,3.7-21.2,0.4-32.3c24.2-3.1,44.4-13.5,61.8-32.2c2.7,7.5,5.5,14.2,7.6,21.1
		c2.5,8.1,1,16.3-0.5,24.4c-1.1,5.8-5.9,7.9-10.3,9.9c-11.9,5.4-24.6,8.3-37.7,9.5c-1.9,0.2-3.9-1.1-5.9-1.2c-1.4,0-2.8,1.4-4.2,1.4
		C673.7,496.6,670.3,496.2,666,495.9z"/>
	<path class="st0" d="M243,431.6c17.5,18.7,37.7,29,61.9,32.3c-3.5,10.8-2.9,21.4,0.4,32.2c-9.8,1-19.3,1.8-28.8-0.9
		c-10-2.9-20.3-4.8-30.1-8.2c-9.7-3.3-13-11.5-10.7-22c0.8-3.8-0.4-8.1,0.5-11.8C237.8,446.3,240.4,439.5,243,431.6z"/>
	<path class="st0" d="M456.5,682.3c-3.5,6.5-6.5,12.2-9.3,17.4c-3.4-6.8-6.7-13.6-10.7-21.7c-5.4,4.7-9.8,8.4-14.1,12.1
		c-1.1-3.9-2.3-8.4-3.8-13.4c13.4-2.3,23.2-11.4,31.7-21.5c5.5,7.2,10.3,14.6,16.4,21c4.7,4.9,10.7,8.7,16.6,12.4
		c1.4,0.9,4.7,0,6.4-1.1c8.3-5.5,16.4-11.4,22.3-19.7c3-4.2,5.7-8.6,8.6-13.1c8.9,9.9,18.8,18.9,32,21.8c-1.2,4.8-2.3,9.3-3.4,13.9
		c-3-2.9-5.7-6.1-9-8.6c-4.4-3.3-5.9-3-8.5,1.8c-2.7,5.1-4.9,10.4-7.4,16c-3.2-5.5-6.5-11.3-10.1-17.6c-8.1,6.4-12.2,14.9-14.5,24.2
		c-0.7,2.8-1.9,3.4-4.3,4c-6.7,1.7-13.3,2.3-20.1,0.1c-2.4-0.8-3.2-1.7-3.7-4c-1.6-8.3-6-15.4-11.5-21.7
		C459,683.4,457.4,682.8,456.5,682.3z"/>
	<path class="st0" d="M731.8,493.4c2,8.2,5.8,15.8,3.5,25.6c-1.2,5.1-2.2,10.1-4.5,14.9c-3.2,6.8-8.8,8.9-15.7,8.2
		c-14.4-1.5-28.5-4.3-41.4-11.2c-5.6-3-10.8-6.8-16.2-10.3c-2.6-1.7-2.7-3.8-1.1-6.3c0.1-0.1,0.2-0.2,0.3-0.4
		c3.1-9,8.9-11.7,18.4-10c9.9,1.8,19.9,0.1,29.6-2.6C713.5,498.9,722,496.3,731.8,493.4z"/>
	<path class="st0" d="M317.4,519.2c-4.7,2.4-9.7,4-13.4,7.1c-13.1,11-29.2,13.3-45.2,15.8c-10.8,1.7-19.2-4.5-22.2-16.5
		c-2.4-9.5-1.9-19,1.7-28.2c1-2.5,1.3-6.3,5.5-2c1.9,1.9,5.9,1.8,8.9,2.5c7.3,1.8,14.6,3.6,22,5.2c9.7,2.2,19.6,2,29.4,0.6
		c3.1-0.5,4.8-0.1,6.2,3.1C311.9,510.8,314.5,514.3,317.4,519.2z"/>
	<path class="st0" d="M453.5,572.6c14.6-5.6,23.6-17.4,32.5-29.6c8.3,12.5,17.6,23.7,33.2,29.8c-3.1,5.8-5.9,11.4-9,16.8
		c-2.5,4.4-4.8,9-8.2,12.6c-3.9,4.1-8.7,7.4-13.3,10.6c-1.3,0.9-3.7,1.4-5.2,0.9C471,608.7,454.9,586.5,453.5,572.6z"/>
	<path class="st0" d="M481.6,539.4c-7.5,10-14.1,21.6-26.9,26.8c-2,0.8-5.4,0.7-6.9-0.5c-6.7-5.5-13.2-11.2-19.1-17.5
		c-4.5-4.8-8.3-10.4-12-15.9c-0.9-1.3-0.5-4.3,0.5-5.8c4.5-6.7,9.3-13.2,14.2-19.5c1.3-1.6,3.5-2.8,5.6-3.5c3.4-1.1,7-2,10.6-2.4
		c1.6-0.2,4.2,0.8,4.8,2c3.6,8.2,7.8,15.9,14.1,22.3C471.1,530.3,476.3,534.7,481.6,539.4z"/>
	<path class="st0" d="M521,500.3c4.9,0.9,10.2,1.8,15.5,3c1,0.2,2.1,1.3,2.6,2.3c2.3,3.8,4.1,7.9,6.6,11.5c2.4,3.4,5.8,6,8.2,9.4
		c1,1.4,1.2,4.2,0.5,5.7c-5.4,12.2-14.8,21.1-25,29.2c-9,7.2-12.2,7.5-20.6-0.3c-6.4-6-11.4-13.4-17.2-20.1
		c-0.7-0.8-1.7-1.2-2.2-1.5c6.8-6.2,13.7-11.3,18.8-17.7C513.4,515.5,516.8,507.7,521,500.3z"/>
	<path class="st0" d="M558.9,602.3c8.8,9.4,18.3,16.7,30.7,18.9c-1.8,15.6-19.5,42.5-27.1,41c0.3,0.9,0.9,1.9,0.6,2.4
		c-2.1,3.9-9.5,6.4-13.9,5c-11.4-3.4-18.4-12.3-26.4-20.7C537.1,635.3,551.1,621.7,558.9,602.3z"/>
	<path class="st0" d="M448.7,649.2c-7.9,8.3-14.8,16.9-25.5,20.8c-2.8,1-6.9,4-8.4-2c-8.1-0.9-11.7-7.8-16.4-12.9
		c-7.7-8.4-12.9-18.3-16-29.3c-0.7-2.4-1.1-4.2,2.3-4.9c3.9-0.9,8-1.7,11.2-3.9c5.9-4,11.1-8.9,17.3-14c0.5,2.3,1,4.6,1.8,7.9
		c-0.1-0.1,1.5,0.3,2,1.2C424.9,626.4,436.2,637.9,448.7,649.2z"/>
	<path class="st0" d="M663.8,387.2c0,6.6,0.5,13.9-0.2,21c-0.4,4.9-3.9,9.8-3.4,14.4c0.7,6.7-2.5,11.9-4.5,17.5
		c-1.9,5.3-3.6,5.5-8.7,2.7c-1.3-0.7-3.6,0.6-5.1,0.1c-5.3-1.8-10.4-3.8-15.6-6c-5.4-2.2-10.6-5-16.2-6.8c-5.8-1.9-4.2-6.7-4.9-10.5
		c-1-5.3-1.5-10.7-2.3-16.3c9.9-0.9,20-1.9,30.2-2.8c2.8-1,5.9-2,8.9-3.3C649.1,394.1,656.2,390.7,663.8,387.2z"/>
	<path class="st0" d="M307.2,385.3c8.9,8.3,18.6,12.1,28.9,14.2c10.5,2.1,21.2,3.2,32.3,4.9c-0.8,5.2-1.7,10.9-2.7,16.7
		c-0.1,0.4-0.8,1-0.7,1.2c3.3,6.8-3,7.5-6.3,9.5c-11.4,6.8-23.7,11.1-36.9,13.1c-2.9,0.4-4.9,0.1-5.7-3.2c-1.6-6.3-3.6-12.6-5-18.9
		c-1.5-6.7-3-13.4-3.7-20.2C306.8,397.3,307.2,391.9,307.2,385.3z"/>
	<path class="st0" d="M553.8,601.6c-2.7,4.9-4.8,10.4-8.4,14.7c-7.7,9.3-16.1,18.1-24.5,26.8c-1.2,1.3-4.6,1.8-6.3,1.1
		c-10-4.3-17.5-11.5-22.9-21c-1.7-3-1.9-4.6,1.6-6.7c13.7-8.3,22.5-20.5,27.9-35.4c0.4-1,0.8-2.1,1.3-3.1c0.1-0.1,0.2-0.2,0.5-0.4
		c4.3,4.9,8.1,10.5,13.1,14.5C541,596,547.3,598.2,553.8,601.6z"/>
	<path class="st0" d="M482.5,619c-6.7,11-13.4,20.8-25.3,25.4c-1.9,0.7-5.2,0.6-6.5-0.6c-12.3-11-23.7-22.9-31.1-37.9
		c-0.6-1.3-1-2.7-1.6-4.5c12.3-4.9,22.8-12.1,29.6-23.1c4.7,7.9,8.9,15.8,13.9,23.2C466.6,609.2,473.7,614.9,482.5,619z"/>
	<path class="st0" d="M538.9,264.6c4.6-4.8,8.9-9.3,13.8-14.4c6.6,16.6,17.8,26.4,34.4,30.2c11.5,2.7,21.6-2.1,32.2-4.5
		c8.7-9.7,18.5-18.6,20.1-32.7c1.6-13.8-2.2-26-11.6-37.1c6.9-2,13.3-3.9,19.9-5.8c3.7,14,5.2,27.6,3.1,41.5
		c-3.1,20.4-12.4,36.6-32.2,44.8c-10.7,4.5-21.7,5.5-33.6,3.1C566.9,286,552.6,276.3,538.9,264.6z"/>
	<path class="st0" d="M515.5,497.1c-5.2,13.7-12.5,25.6-24.5,33.8c-6.2,4.2-6.5,4-12.9-1.4c-9.5-7.8-16.7-17.4-21-29
		c-0.4-1.1-0.1-3.6,0.7-4c11.6-7,20.5-16.7,28-28.5C493.7,480,502.9,490.2,515.5,497.1z"/>
	<path class="st0" d="M419.5,251.3c0.7,1.6,1.4,3.1,2.2,4.7c0.2-0.3,0.3-0.6,0.5-0.9c1.8,1.4,3.7,2.6,5.3,4.2
		c1.6,1.6,2.9,3.6,4.6,5.8c-2.5,2.2-5,4.9-7.9,7c-15.4,11.5-32,20.4-51.9,19.2c-6.4-0.4-12.7-1.9-19.2-4.5
		c-16.3-6.5-25.3-18.3-30.2-34.1c-2.5-8-3.9-16.3-2.5-25c1.4-8.3,1.7-16.8,2.5-25.3c0-0.3,0.3-0.6,0.8-1.4c6.4,1.6,13,3.3,19.8,5.1
		c-20.9,25.6-12.2,55.5,9,68.2c5.8,3.5,12.9,5.9,19.6,6.5c6.7,0.6,13.7-1.4,20.4-2.6c6.4-1.1,10.6-5.9,15.2-10
		C413,263.6,415.9,257.6,419.5,251.3z"/>
	<path class="st0" d="M516.4,651.1c-4,5.9-7.2,12-11.6,16.8c-4.8,5.2-10.8,9.3-16.2,13.9c-2.2,1.9-4.1,1.5-6.3,0
		c-11.6-7.9-21.3-17.4-26.5-31.2c13.5-4.7,22.9-14.3,30.1-27.1C492.5,636.5,502.3,645.1,516.4,651.1z"/>
	<path class="st0" d="M485.5,191.6c-6.7-7.6-13.8-15.7-20.9-23.7c-2-2.3-4.2-4.6-6.6-6.5c-2.4-1.9-2.2-3.7-0.3-5.6
		c7.8-8,16.3-14.9,26.3-19.9c1.1-0.6,3.1-0.4,4.3,0.2c8.1,3.7,21.6,14.4,27.2,21.8C505.5,169.3,495.4,180.5,485.5,191.6z"/>
	<path class="st0" d="M525.7,571.6c6.8-6.1,13.3-11.5,19.5-17.4c6.1-5.8,11.4-12.3,14.9-20.5c6.3,6.7,12.4,13.1,18.3,19.6
		c0.8,0.8,1.2,2.9,0.7,3.8c-2.6,5.3-2.8,11.5-6.3,16.5c-3.8,5.4-6.8,11.4-10.8,16.6c-4.5,5.9-7.4,5.9-14,2.5
		C538.3,587.9,531.2,580.5,525.7,571.6z"/>
	<path class="st0" d="M445.7,572c-4,6.3-8.5,12.2-15.3,16c-3.1,1.7-5.7,4.2-8.8,5.8c-5.4,2.8-7.6,2.2-11.4-2.3
		c-8.3-9.5-14.1-20.4-17.7-32.6c-0.9-3-0.4-4.8,1.8-7.1c5.8-5.6,11.2-11.7,16-16.8c5.1,6.4,10,13.2,15.7,19.2
		C432,560.6,438.9,566,445.7,572z"/>
	<path class="st0" d="M475.4,401.1c2.5,2.3,5.1,3.9,6.5,6.2c1.8,2.7,3.5,2,5.2,0.8c3-2,5.7-4.3,9-6.8c1.4,6.6,2.6,13,4.2,19.2
		c1.4,5.3,2.9,10.6,5.1,15.6c1.8,4.3,0.1,7.6-2.3,10c-4.5,4.4-9.7,8.1-14.9,11.7c-1.3,0.9-4.1,0.9-5.6,0.1c-7-3.6-12.9-8.5-17-15.2
		c-0.8-1.4-0.2-4,0.3-5.8c1.6-5.8,3.6-11.5,5.2-17.3C472.7,413.8,473.9,407.9,475.4,401.1z"/>
	<path class="st0" d="M603.7,216.1c4.1-1.9,7.6-3.8,11.4-5c1.3-0.4,3.7,0.4,4.8,1.5c8.6,9.1,11.9,19.9,8.8,32.1
		c-3.3,13-11.8,21.9-24.8,25.1c-8.5,2.1-17.2,1.5-25.2-3.1c-7.1-4.1-11.9-10.1-15.5-17.4c-2.2-4.7-0.2-7.2,3.1-9.6
		c2.2-1.7,4.5-3.4,7-5.2c1.8,16.2,8.9,21.9,18.9,23.3c5,0.7,10.9,0,15.3-2.3c3.4-1.8,5.6-6.7,7.3-10.6
		C619.3,234.4,616,226,603.7,216.1z"/>
	<path class="st0" d="M451.5,154.8c-2.8-11.6-6.4-22.1-13-31.3c-4-5.6-4.2-6,1-10.4c5.6-4.6,11.7-8.6,17.7-12.7
		c3.9-2.6,7.7-1.6,10.7,1.6c7.2,7.6,11.6,16.7,14.5,26.7c0.2,0.8-0.4,2.3-1.1,2.7C469.8,137,460.6,145.3,451.5,154.8z"/>
	<path class="st0" d="M536.3,117.5c-3.7,6.5-7.5,12-10.2,18c-2.7,5.8-4.2,12.2-6.4,18.6c-3.1-2.9-6.1-6.2-9.5-8.9
		c-5.5-4.3-11.1-8.5-16.9-12.2c-3.6-2.3-4.9-4.9-3.1-8.6c3.1-6.2,6.4-12.4,9.9-18.3c1.4-2.3,3.5-4.4,5.7-6c1.3-1,3.7-1.5,5.2-1
		C521.6,102.5,529.8,109.3,536.3,117.5z"/>
	<path class="st0" d="M367.8,216.5c-12.3,9.8-15.6,18.4-11.2,28.6c4.4,10.3,13.3,13.9,23.5,12.8c10.6-1.2,16.8-9.5,18.1-23.5
		c3.6,2.8,7.1,5.2,10.3,8c0.8,0.7,1.1,2.6,0.8,3.7c-3.6,11.7-11.2,20.2-23,23.4c-6.6,1.8-13.8,2.7-20.7,0.1
		c-7.2-2.7-13.3-6.8-17.6-13.1c-10-14.8-7.3-32,3.2-43.4c2-2.2,3.8-2.9,6.6-1.3C360.9,213.7,364.3,214.9,367.8,216.5z"/>
	<path class="st0" d="M584.9,559.7c6.4,5.3,12.4,10.7,18.9,15.5c3,2.2,3.8,4.7,3.2,8c-1.6,9.5-4.8,18.4-10.2,26.4
		c-4.9,7.4-7.8,8.2-15.7,3.2c-3.1-1.9-6.7-3-9.4-5.6c-3.1-2.9-6.2-5.8-9.6-9c4.8-5.9,10.7-10.8,13.6-17.9
		C578.5,573.4,581.8,566.5,584.9,559.7z"/>
	<path class="st0" d="M387,559.7c1.8,5.1,3.2,10.1,5.4,14.7c2.1,4.5,5.7,8.3,7.5,12.8c1.9,4.8,7,6.6,9.1,11.4
		c-6.2,7.3-13.4,13.5-22.6,16.6c-6.5,2.2-8.4,1.4-11.9-5.5c-2.9-5.6-5.4-11.4-7.7-17.3c-1.3-3.5-1.9-7.4-2.5-11.1
		c-0.2-1.1,0.4-2.9,1.2-3.6C372.5,571.6,379.7,565.7,387,559.7z"/>
	<path class="st0" d="M373.1,620.1c-8.1,5.4-17.6,9-28.3,9.5c-4,0.2-6.8-0.8-9.2-4.2c-4.6-6.3-9.7-12.2-14.6-18.4
		c13.1-8.3,25.4-16,36.6-23.1C362.6,595.4,367.8,607.5,373.1,620.1z"/>
	<path class="st0" d="M650.5,606.8c-5.9,7.3-11.6,14.3-17.4,21.3c-0.6,0.7-2,1-3,1c-11.5,0-22.4-2.1-31.3-10.2
		c-0.3-0.3-0.9-0.2-1.3-0.2c3.2-5.8,6.8-11.3,9.3-17.2c2.5-5.9,4-12.2,5.9-18.5C624.8,590.6,637.2,598.4,650.5,606.8z"/>
	<path class="st0" d="M297.8,391c-17.2-8.6-29-22.3-35.2-40.1c-1.5-4.2,1.8-10.1,3.2-15.2c0.4-1.6,1.8-2.9,3-4.6
		c6.1,9.5,13.6,17,23.2,22.3c9,4.9,18.1,9.4,27.8,14.3c-8.5,2-16.9,3.9-26,6C298.9,378.8,304.8,383.5,297.8,391z"/>
	<path class="st0" d="M702.5,332.1c3.4,2.4,8.4,13.3,7,17.1c-6.9,18.6-18.4,33.3-36.8,42c-3.6-10.4-3.6-10.4,5.7-17.8
		c-8.9-1.9-17.8-3.8-26.7-5.8c4-2.8,8.3-3.5,12-5.9c4.5-3,9.7-4.8,14.3-7.6c4.7-2.9,9.4-6,13.6-9.7
		C695.6,340.7,698.9,336.2,702.5,332.1z"/>
	<path class="st0" d="M399.6,135.5c-2.1-8.9-3.8-17.7-6.4-26.2c-2.5-8.2-2.8-9,4-14.4c5.1-4,11.2-6.2,17.1-8.9
		c7.1-3.4,7.7,0.7,8.9,4.8c2.1,7.3,3.9,14.7,5.3,22.1c0.3,1.3-1.5,3.8-2.9,4.6c-4.7,2.6-10.1,4.1-14.5,7.1
		C406.7,127.6,403.3,132,399.6,135.5z"/>
	<path class="st0" d="M485.7,121.5c-4.2-10.7-9.4-18.9-16.6-25.8c-1.2-1.2-1.8-4.2-1.3-5.9c2.7-8.3,5.3-16.6,13.4-21.7
		c2-1.3,3.3-3.8,5.4-4.8c0.7-0.3,3,2.3,4.3,3.8c6.3,7.2,12.2,14.7,13,24.7c0.1,1,0.1,2.3-0.5,2.8
		C495.5,101.9,489.7,110.3,485.7,121.5z"/>
	<path class="st0" d="M571.2,135.8c-2.6-3.1-4.5-6.6-7.5-8.6c-5.8-3.8-12.1-6.7-18.2-10.1c-1.1-0.6-2.4-2.1-2.4-3.1
		c-0.1-10.1,2.6-19.5,7.5-28.3c0.4-0.8,2.4-1.4,3.5-1.2c9.5,2.4,18,6.5,24.1,14.5c1.3,1.7,1.9,4.8,1.3,6.9
		C577.1,115.3,574.3,124.7,571.2,135.8z"/>
	<path class="st0" d="M345.7,635.4c5.5-1.3,10.8-2.2,15.8-4c5-1.7,9.8-4.3,15.1-6.6c4.9,17.9,14.3,33.3,29.1,45
		c-6.7,4-12.4,3.8-18.6-1.3c-12.7-10.4-25.9-20.2-38.9-30.3C347.3,637.5,346.6,636.4,345.7,635.4z"/>
	<path class="st0" d="M564.8,670.3c15.6-12.9,25.4-27.8,29.7-45.2c10.3,3.6,20.4,7.1,30.9,10.8c-4.1,3.7-8.5,8.2-13.5,11.9
		c-10.8,8.1-21.8,15.8-32.8,23.7C574.3,674.8,570.5,670.7,564.8,670.3z"/>
	<path class="st0" d="M434.2,110.8c-1.5-6-2.7-11.7-4.2-17.3c-0.7-2.6-1.4-5.5-3-7.5c-3.2-4-1.5-7.5,0.7-10.6
		c3-4.3,6.6-8.1,10.1-12.1c2.1-2.4,4.7-2.1,6.6,0c7.3,8,12,17.5,15.5,27.7c0.3,0.9-0.6,2.9-1.4,3.2
		C449.2,97.9,441.2,103.4,434.2,110.8z"/>
	<path class="st0" d="M537.9,109.3c-8.5-5.5-17.4-11.3-26.9-17.5c4.2-9.5,7.7-20.8,16.7-29c1.1-1,4.8-0.9,5.7,0.1
		c4.5,5.1,8.6,10.5,12.7,16c0.6,0.8,0.6,2.5,0.1,3.4C541.1,90.9,538.7,100.3,537.9,109.3z"/>
	<path class="st0" d="M481.5,464.4c-8.3,16.8-28.1,32.1-42.9,33.4c7.8-16.1,15.8-32.5,23.8-48.8C468.4,453.9,474.8,459,481.5,464.4z
		"/>
	<path class="st0" d="M532.6,496.2c-10.3,1.9-32.1-12.4-42.7-32c6.5-5.3,12.9-10.5,19-15.5C516.6,464.1,524.6,480.2,532.6,496.2z"/>
	<path class="st0" d="M610.5,113.7c-7.1-4-14.5-8.1-21.7-12.5c-1.4-0.9-2.5-3.2-2.7-5c-0.7-6-0.9-12.1-1.3-18.6
		c6.1-1.6,10.4,1.8,15,3.8c0.3,0.1,0.5,0.3,0.8,0.5c9.3,5.3,15.2,12,10.6,23.7C610.2,108.3,610.7,111.5,610.5,113.7z"/>
	<path class="st0" d="M361.2,114.2c-0.9-6.6-1.8-13.3-2.7-20c-0.1-0.7,0.1-1.6,0.5-2c6.5-6.4,13.2-12.4,22.5-14.6
		c3.4-0.8,4.9-0.1,4.7,3.5c-0.2,3.9-0.4,7.7-0.4,11.6c0,5.6-1.9,9-7.7,11.3C372.1,106.3,366.8,110.7,361.2,114.2z"/>
	<path class="st0" d="M609.9,122.4c-10.9,5.8-21.3,11.4-32.7,17.5c1.2-7.5,2.1-14.4,3.4-21.2c0.6-3.1,1.5-6.2,3-8.9
		c0.8-1.4,3.8-3.1,5-2.6C596.8,110.4,603.9,115.3,609.9,122.4z"/>
	<path class="st0" d="M393.3,139.8c-5.2-2.9-10.5-5.7-15.7-8.6c-5.1-2.8-10.3-5.5-16.6-8.8c2.7-2.4,4.7-4.5,7.1-6.2
		c4.2-2.9,8.7-5.6,13.1-8.2c3.3-2,6.1-1.1,7.1,2.6c2.4,9.5,4.4,19.2,6.5,28.8C394.2,139.5,393.8,139.7,393.3,139.8z"/>
	<path class="st0" d="M580.3,92.8C574,88.1,569,84,563.5,80.4c-1.7-1.1-4.5-0.7-6.7-1.2c-2-0.5-4.6-0.8-5.7-2.2
		c-3.8-5-7.1-10.4-10.9-16c9.6,0.5,18.6,2.7,27,7.2c4.1,2.2,8,4.9,12,7.5c0.4,0.3,1,0.7,1,1.1C580.3,81.7,580.3,86.5,580.3,92.8z"/>
	<path class="st0" d="M391.3,93c0-4.8-0.2-8.9,0.1-13c0.2-2,1-4.3,2.4-5.6c6.5-6.3,27.7-13.4,37-12.8c-3.5,5.3-6.8,10.8-10.7,15.9
		c-1.1,1.4-3.6,2.1-5.5,2.5C405.7,82,398.4,86.9,391.3,93z"/>
	<path class="st0" d="M480.3,58.9c-5.7,8-11.6,16.1-17.3,23.9c-4.1-7.1-8.8-15-14-23.9C459.6,58.9,470.3,58.9,480.3,58.9z"/>
	<path class="st0" d="M571.5,722.2c-1.9-5.2-3.5-10.5-5.9-15.4c-1.5-3-3.7-6.7-6.4-7.7c-3.1-1.2-1.4-2.7-1.4-3.9
		c-0.2-6.3,1.8-11.8,6.8-16.7c9.5,13.5,10.7,28.1,8.5,43.3C572.5,722,572,722.1,571.5,722.2z"/>
	<path class="st0" d="M429.7,741.8c-3.6-17.3-6.4-33.7,3.2-49.6C439.2,701.6,439.9,728.8,429.7,741.8z"/>
	<path class="st0" d="M398.4,721.5c-2.1-16-0.5-29.8,8.4-42.6c6,5.2,6.8,12,7.5,18.7c0.1,0.6-0.5,1.6-1,2
		c-6.5,4.9-8.2,12.9-12.4,19.3C400.5,719.4,399.9,719.9,398.4,721.5z"/>
	<path class="st0" d="M508.2,82.6c-5.3-7.6-11.2-15.8-17.1-24.2c9.7,0,19.9,0,31.4,0C517.1,67.6,512.4,75.6,508.2,82.6z"/>
	<path class="st0" d="M537.9,691.4c10.3,16.4,7.1,32.9,4.3,50C533.6,731.3,530.8,710.6,537.9,691.4z"/>
	<path class="st0" d="M632.2,110.6c-3.4,4.4-10.4,4.9-15.4,8.7c-0.4-0.2-0.9-0.5-1.3-0.7c0.6-7.4,1.3-14.8,1.9-22
		c8.4-0.8,16.4,2.4,16.7,4.9c3.2,1.8,5.7,3.1,9.1,4.9C639.3,107.9,636.4,109,632.2,110.6z"/>
	<path class="st0" d="M329,106.7c7-6.4,14.8-9.6,24.8-10.9c0.7,7.8,1.4,15.3,2.1,23.5c-5.8-2.6-10.8-4-14.8-6.9
		C337.5,110,333.4,109.2,329,106.7z"/>
	<path class="st0" d="M558.9,129.2c-11.2,6.7-21.5,12.9-31.9,19.1c2.9-8.4,5.7-17,11.8-24.2c1.9-2.2,4-2.9,6.7-1.4
		C549.9,124.9,554.3,126.9,558.9,129.2z"/>
	<path class="st0" d="M445.2,149c-11.4-6.8-21.5-12.8-32.7-19.5c5.4-2.5,10.1-5.1,15-7c2.5-1,8.3,3.8,7.3,6c-1.9,4,2.2,0.7,2.7,2.7
		C439.4,137,442.3,142.4,445.2,149z"/>
	<path class="st0" d="M424.7,157.3c-1.3,0.7-1.9,1.2-2.1,1.1c-7.2-4.6-14.4-9.2-22.4-14.4c3.7-4.4,7.1-8.5,11.3-13.6
		C416.2,140,420.4,148.6,424.7,157.3z"/>
	<path class="st0" d="M560.3,130.7c3.9,4.4,7.4,8.3,11,12.5c-8.4,5.8-16.3,11.2-24.8,17C548.9,149.3,554.8,140.8,560.3,130.7z"/>
	<path class="st0" d="M465.3,732c-5.2-7-10-13.4-15.3-20.7c2-3.8,4.7-8.8,7.7-14.6C465,708.1,466.4,719.6,465.3,732z"/>
	<path class="st0" d="M506.3,732.6c-1.5-13.2-0.2-24.7,7.1-35.4c2.5,4.2,4.9,8.1,7.1,12.1c1,1.8,1.7,3.1-1.6,4.3
		c-2.1,0.8-3.3,4.4-4.8,6.8C511.8,724.1,509.4,727.8,506.3,732.6z"/>
</g>
</svg>
